<?xml version="1.0" encoding="utf-8"?>
<!-- Generator: Adobe Illustrator 16.0.4, SVG Export Plug-In . SVG Version: 6.00 Build 0)  -->
<!DOCTYPE svg PUBLIC "-//W3C//DTD SVG 1.1//EN" "http://www.w3.org/Graphics/SVG/1.1/DTD/svg11.dtd">
<svg version="1.1" id="Layer_1" xmlns="http://www.w3.org/2000/svg" xmlns:xlink="http://www.w3.org/1999/xlink" x="0px" y="0px"
	 width="512px" height="512px" viewBox="0 0 512 512" enable-background="new 0 0 512 512" xml:space="preserve">
<path fill="#FF4F1F" d="M256-0.25C114.615-0.25,0,114.421,0,255.875S114.615,512,256,512s256-114.671,256-256.125
	S397.385-0.25,256-0.25z M256,494.375c-131.167,0-237.5-106.332-237.5-237.5s106.333-237.5,237.5-237.5
	c131.168,0,237.5,106.332,237.5,237.5S387.168,494.375,256,494.375z"/>
<ellipse fill="#FFFFFF" cx="256" cy="256.875" rx="237.5" ry="237.5"/>
<path d="M320.349,257L439.286,48.875c5.625-9.906,5.625-22.063-0.125-31.938S422.911,1,411.474,1h-320
	C80.099,1,69.536,7.063,63.818,16.938c-5.718,9.875-5.781,22.031-0.094,31.938L182.63,257L63.724,465.125
	c-5.688,9.906-5.625,22.062,0.094,31.938C69.537,506.939,80.099,513,91.474,513h320c11.438,0,21.938-6.062,27.688-15.938
	c5.75-9.877,5.75-22.031,0.125-31.938L320.349,257z M91.474,481l128-224l-128-224h320l-128,224l128,224H91.474z M251.474,265.5
	L356.349,449H146.63L251.474,265.5z M251.474,248.5l-50-87.5h100L251.474,248.5z"/>
</svg>
